<svg xmlns="http://www.w3.org/2000/svg" version="1.1" xmlns:xlink="http://www.w3.org/1999/xlink" width="78.22" height="68.3"><svg id="SvgjsSvg1005" xmlns="http://www.w3.org/2000/svg" viewBox="0 0 78.22 68.3"><defs><style>.cls-1{fill:#1d1d1b;stroke-width:0px;}</style></defs><path class="cls-1" d="m41.3,42.16c-.32-.11-1.53-.17-3.63-.19l-1.21,14.38-9.88,11.95-2.99-2.07,9.56-11.01,1.04-12.32-.32.95c-.97,2.84-4.05,6.2-9.25,10.05-3.81,2.92-8.25,3.79-13.3,2.59-5.05-1.2-8.52-3.7-10.38-7.52-1.66-3.38-1.1-7.32,1.67-11.84,2.77-4.52,6.32-7.44,10.66-8.78,5.8-1.54,10.59-1.66,14.38-.38l-7.06-7.16-15.48-1.05.66-3.48,15.96,1.22,10.05,9.24c.64-.83,1.59-1.56,2.86-2.19l-3.25-9.04-6.59-7.01,2.23-1.88,6.59,7.02,3.73,9.19c1.27-.62,2.64-1.03,4.12-1.23l-.08-12.17L49.34,0l2.36,2.39-6.38,7.86-.41,12.02c.3,1.16,1.06,1.77,2.28,1.83,1.21.06,1.93-.75,2.15-2.44.64-1.89,2.23-3.45,4.78-4.7,1.27-.62,3.42-.77,6.48-.43l3.84-5.03.37-7.27,2.69-.13-.22,8.38-3.98,5.5c1.36,1.17,2.14,2.5,2.34,3.98.41.84.4,1.9-.02,3.16l6.47,1.16,6.13,5.26-1.91,2.52-5.66-5.11-5.7-.35c-.64.84-1.43,1.62-2.38,2.36s-1.8,1.15-2.55,1.24c-2.01.73-4.12.71-6.32-.05-1.58-.53-2.74-.23-3.48.93-.75,1.16-.76,2.21-.02,3.16l7.85,7.95,10.74,1.03-.02,3.16-12.33-1.04-8.62-8.76c-.22.63-1.23,1.52-3.03,2.67l3.73,9.2-.39,10.43-3.64-.19.4-10.43-3.59-8.09Z"></path></svg><style>@media (prefers-color-scheme: light) { :root { filter: none; } }
@media (prefers-color-scheme: dark) { :root { filter: none; } }
</style></svg>