<?xml version="1.0" encoding="UTF-8"?>
<svg id="Capa_2" data-name="Capa 2" xmlns="http://www.w3.org/2000/svg" viewBox="0 0 572.74 483.51">
  <defs>
    <style>
      .cls-1 {
        fill: #fff;
      }

      .cls-2 {
        stroke: #fff;
        stroke-width: .25px;
      }

      .cls-2, .cls-3 {
        fill: none;
        stroke-miterlimit: 10;
      }

      .cls-3 {
        stroke: #000;
        stroke-width: 3px;
      }
    </style>
  </defs>
  <g id="Ebene_1" data-name="Ebene 1">
    <g>
      <g>
        <path class="cls-1" d="M174.44,323.76c-1.37,0-2.19,1.52-2.19,4.06-.01,1.6.31,2.77.93,3.39.66.67,1.87.67,2.53,0,.62-.62.94-1.79.93-3.39,0-2.55-.82-4.07-2.19-4.07Z"/>
        <path class="cls-1" d="M247.59,232.38c-.41-1.54-1.18-2.17-2.62-2.17s-2.54.75-2.99,2.16h0s-.41,1.25-.41,1.25h6.44l-.41-1.23Z"/>
        <path class="cls-1" d="M224.68,236.71c2.91,0,2.91-.98,2.91-1.35s-.12-1.15-.89-2.54c-.86-1.51-2.25-2.41-3.72-2.41-1.67,0-2.67,1.14-2.67,3.05,0,1.39.45,3.25,4.37,3.25Z"/>
        <path class="cls-1" d="M224.23,271.01c-2.21,0-3.52,2.31-3.52,6.17-.02,2.38.48,4.14,1.43,5.1.55.55,1.25.84,2.09.84s1.54-.28,2.09-.84c.95-.96,1.45-2.72,1.43-5.09,0-3.87-1.32-6.18-3.52-6.18Z"/>
        <path class="cls-1" d="M205.05,325.1c-.26-.98-.69-1.33-1.57-1.33-.93,0-1.55.44-1.83,1.32l-.16.49h3.73l-.16-.48Z"/>
        <path class="cls-1" d="M326.57,230.21c-1.5,0-2.54.75-2.99,2.16l-.42,1.25h6.44l-.41-1.23c-.41-1.54-1.18-2.17-2.62-2.17Z"/>
        <path class="cls-1" d="M180.82,242.31c1.13,0,2.64-.73,3.43-2.74-1.19-.98-2.3-1.35-2.99-1.35-.45,0-1.82,0-1.82,2.3,0,1.65.68,1.79,1.38,1.79Z"/>
        <path class="cls-1" d="M185.15,233.46c0-3.25-1.25-3.25-1.99-3.25-1.14,0-2.2.39-2.2,3.25v.83c1.56.15,3.18.92,4.51,2.12l-.32-2.95Z"/>
        <path class="cls-1" d="M220.6,247.41c-.05.09-.17.3-.12.4.23.4,1.67.97,4.16.97s3.79-.84,3.79-1.45-1.04-.8-1.92-.8l-5.39.03-.53.86Z"/>
        <path class="cls-1" d="M512.55,181.39v-30.06h-32.45v-31.49h-27.68v-29.11h-92.09v-28.63h-29.58v-31.97h-28.15V1.5h-32.92v60.12h-58.69v29.11h-31.02v59.65h-60.6v60.6h-58.69v90.19H1.5v91.14h88.75v89.71h90.19v-31.02h90.66v-59.65h30.06v30.54h60.12v29.11h61.56v-119.77h60.6v-58.22h27.2v-32.45h60.6v-59.17h-58.69ZM384.73,220.22h5.4v5.23h-5.4v-5.23ZM282.73,220.22h5.4v5.23h-5.4v-5.23ZM276.95,241.97h6.09l-.14-2.51v-6.35s.14-2.57.14-2.57h-6.1v-4.38h11.01v13.24l-.15,2.57h6.1v4.55h-16.96v-4.55ZM256.21,226.17h6.48l-.37,1.77c1.24-1.4,3-2.11,5.26-2.11,2.86,0,6.27,1.58,6.27,9.12,0,.38,0,.72-.04,1.06l-.1.89h-4.92v-1.95c0-4.71-1.21-4.71-1.79-4.71-1.92,0-3.86,2.07-3.86,6.04v10.25h-5.06v-13.38l.15-2.6h-2.02v-4.38ZM244.97,225.83c4.66,0,7.8,3.39,7.8,8.45v3.55h-11.21l.46,1.45c.22,2.16,1.07,3.04,2.95,3.04,1.63,0,2.28-.66,2.51-2.52l.11-.88h5.18l-.18,1.15c-.68,4.38-3.38,6.8-7.62,6.8-5.23,0-8.48-4-8.48-10.45s3.25-10.59,8.48-10.59ZM222.81,225.86c2.73,0,4.74,1.14,5.95,3.32.14-.69.42-1.26.82-1.72.74-.86,1.86-1.29,3.33-1.29h1.34v4.55h-1.34c-.88,0-.94,0-.94,1.38,0,7.32-2.85,8.82-7.12,8.82-1,0-1.93-.07-2.78-.22l-.8,1.45h5.92c4.35,0,6.3,2.5,6.3,4.98,0,3.08-3.04,6.2-8.85,6.2-4.24,0-8.75-1.6-8.75-4.57,0-.91.46-1.83,1.38-2.72-.64-.45-1-1.16-1-2.04s.4-1.87,1.18-2.94l1.18-1.61c-1.99-1.25-3.04-3.31-3.04-6.03,0-4.52,2.9-7.56,7.22-7.56ZM195.02,226.17h6.44l-.3,1.47c1.18-1.37,2.8-2.05,4.89-2.05,3.81,0,6.27,3.09,6.27,7.87v13.07h-5.06v-13.07c.02-1.42-.27-2.53-.8-3.07-.26-.26-.57-.39-.99-.39-1.77,0-3.56,2.16-3.56,6.28v10.25h-5.06v-13.38l.15-2.6h-1.98v-4.38ZM193.99,266.97h5.29l-.2.95c.78-.87,1.73-1.29,2.88-1.29,1.54,0,2.65.96,3.05,2.54.87-1.7,2.13-2.54,3.82-2.54,3.1,0,4.67,2.59,4.67,7.7v13h-4.89v-12.83c0-2.85-.33-3.39-.43-3.49-.29.03-1.65,1.1-1.65,6.31v10.01h-4.72v-12.83c0-2.48-.22-3.22-.33-3.44-.45.13-1.75,1.44-1.75,6.26v10.01h-5.06v-13.38l.15-2.6h-.83v-4.38ZM175.91,234.46v-1c0-4.78,2.71-7.63,7.25-7.63s7.01,2.78,7.05,7.62v7.15c0,1.38.11,1.38,1.21,1.38h1v4.55h-1c-3.05,0-4.13-1.18-4.45-3.62-1.33,2.33-3.74,3.96-6.16,3.96-3.57,0-6.37-2.78-6.37-6.34s2.01-5.48,4.37-6.07h-2.91ZM180.83,280.07c.22,2.16,1.07,3.04,2.95,3.04,1.63,0,2.28-.66,2.51-2.52l.11-.88h5.18l-.18,1.15c-.68,4.38-3.38,6.8-7.62,6.8-5.23,0-8.48-4-8.48-10.45s3.25-10.59,8.48-10.59c4.66,0,7.8,3.39,7.8,8.45v3.55h-11.21l.46,1.45ZM154.22,220.73h17.64v4.38h-6.44l.15,2.55v18.87s-5.06,0-5.06,0v-18.81l.15-2.6h-6.44v-4.38ZM160.11,335.52c-2.13,0-3.95-.74-5.1-2.07-1-1.15-1.42-2.68-1.19-4.3l.12-.86h4.19l-.12,1.11c-.08.79.04,1.38.38,1.75.43.47,1.17.57,1.72.57,1.31,0,2.12-1.04,2.12-2,0-1.23-1.32-1.68-1.89-1.81l-2.12-.5c-2.64-.63-4.42-2.81-4.42-5.41,0-3.28,2.69-5.75,6.26-5.75,1.81,0,3.49.65,4.6,1.8,1.05,1.08,1.58,2.56,1.54,4.27l-.03.97h-4.22l.04-1.04c.03-.79-.14-1.39-.52-1.79-.42-.44-1.01-.53-1.44-.53-1.05,0-2.19.75-2.19,1.95,0,.34,0,1.15,1.64,1.55l2.11.5c2.88.7,4.68,2.87,4.68,5.65,0,3.61-2.42,5.94-6.16,5.94ZM165.93,278.21h-5.78l-1.19-5.9.32,4.84v10.18s-5.06,0-5.06,0v-25.8h6.72l2.1,10.71,2.1-10.71h6.72v25.8h-5.06v-10.11l.32-4.91-1.19,5.91ZM174.44,335.52c-3.09,0-6.4-2.02-6.4-7.7s3.31-7.74,6.4-7.74,6.4,2.03,6.4,7.74-3.31,7.7-6.4,7.7ZM191.5,334.9c-1.04,3.51-1.99,5.18-4.61,5.18h-2.8v-3.8h2.8c.08,0,.11,0,.11,0,.06-.05.2-.26.45-.99h-1.01l-4.6-14.96h4.42l2.64,9.68,2.64-9.68h4.26l-4.32,14.58ZM209.14,330.48c-.5,3.25-2.52,5.05-5.67,5.05s-6.28-2.02-6.28-7.67c0-4.72,2.47-7.77,6.28-7.77,3.42,0,5.8,2.57,5.8,6.26v2.8h-7.8l.21.7c.16,1.57.8,1.88,1.79,1.88.88,0,1.32-.23,1.48-1.52l.11-.88h4.26l-.18,1.15ZM217.63,335.52c-3.09,0-6.4-2.02-6.4-7.7s3.31-7.74,6.4-7.74,6.4,2.03,6.4,7.74-3.31,7.7-6.4,7.7ZM215.58,277.18c0-7.78,4.47-10.55,8.65-10.55s8.65,2.77,8.65,10.55-4.47,10.49-8.65,10.49-8.65-2.75-8.65-10.49ZM238.32,335.28h-4.16v-9.52c.01-.91-.17-1.64-.48-1.96-.09-.09-.22-.19-.49-.19-1.1,0-2.22,1.42-2.22,4.14v7.53h-4.16v-9.74l.09-1.54h-1.38v-3.68h5.2l-.1.5c.8-.6,1.79-.91,2.98-.91,2.87,0,4.72,2.3,4.72,5.85v9.52ZM253.41,276.81l-.1.89h-4.92v-1.95c0-4.71-1.21-4.71-1.79-4.71-1.92,0-3.86,2.07-3.86,6.04v10.25h-5.06v-13.38l.15-2.6h-2.02v-4.38h6.48l-.37,1.77c1.24-1.4,3-2.11,5.26-2.11,2.86,0,6.27,1.58,6.27,9.12,0,.38,0,.72-.04,1.06ZM263.15,335.28l-2.67-6.83c-.24-.62-.7-.95-.85-.97h-.76s.08,1.47.08,1.47v6.34s-4.16,0-4.16,0v-18.8h4.16v6.28l-.07,1.04h.78c.13-.02.58-.34.82-.96l2.43-6.36h4.65l-3.58,7.76c-.27.6-.63,1.06-1.08,1.39.45.33.8.8,1.08,1.42l3.83,8.23h-4.65ZM262.28,294.12h-3.55v-4.55h3.55c.36,0,.68,0,1.36-2.25h-1.69l-6.26-20.36h5.38l4.06,14.88,4.06-14.88h5.16l-5.96,20.12c-1.44,4.87-2.66,7.04-6.13,7.04ZM281.51,335.28h-12.56v-3.8h4.29l-.08-1.46v-4.5s.08-1.52.08-1.52h-4.29v-3.68h4.08v-4.2h4.4v4.28h-.12v9.62s-.08,1.46-.08,1.46h4.29v3.8ZM296.75,335.28h-4.04v-9.35c0-1.1-.07-1.67-.13-1.97-.28.38-.75,1.47-.75,3.97v7.36h-3.92v-9.35c0-1.02-.05-1.6-.11-1.92-.28.39-.77,1.41-.77,3.92v7.36h-4.16v-9.74l.09-1.54h-.57v-3.68h4.39l-.04.19c.43-.27.95-.43,1.57-.43,1.02,0,1.8.51,2.22,1.39.56-.79,1.38-1.39,2.63-1.39,2.38,0,3.59,1.93,3.59,5.73v9.47ZM314.31,246.52h-5.06v-13.07c.02-1.42-.27-2.53-.8-3.07-.26-.26-.57-.39-.99-.39-1.77,0-3.56,2.16-3.56,6.28v10.25h-5.06v-13.38l.15-2.6h-1.98v-4.38h6.44l-.3,1.47c1.18-1.37,2.8-2.05,4.89-2.05,3.81,0,6.27,3.09,6.27,7.87v13.07ZM334.37,237.82h-11.21l.46,1.45c.22,2.16,1.07,3.04,2.95,3.04,1.63,0,2.28-.66,2.51-2.52l.11-.88h5.18l-.18,1.15c-.68,4.38-3.38,6.8-7.62,6.8-5.23,0-8.48-4-8.48-10.45s3.25-10.59,8.48-10.59c4.67,0,7.8,3.39,7.8,8.45v3.55ZM370.6,246.52l-3.68-9.41c-.44-1.14-1.3-1.64-1.55-1.64h-1.56l.14,2.51v8.54s-5.06,0-5.06,0v-25.8h5.06v8.48l-.13,1.89h1.55c.26,0,1.11-.49,1.55-1.63l3.34-8.74h5.65l-4.8,10.4c-.46,1.02-1.1,1.73-1.94,2.16.84.42,1.47,1.14,1.95,2.17l5.15,11.07h-5.65ZM395.91,246.52h-16.96v-4.55h6.09l-.14-2.51v-6.35s.14-2.57.14-2.57h-6.1v-4.38h11.01v13.3s-.15,2.51-.15,2.51h6.1v4.55ZM417.5,246.52h-4.89v-12.83c0-2.85-.33-3.39-.43-3.49-.29.03-1.65,1.1-1.65,6.31v10.01h-4.72v-12.83c0-2.48-.22-3.22-.33-3.44-.45.13-1.75,1.44-1.75,6.26v10.01h-5.06v-13.38l.15-2.6h-.83v-4.38h5.29l-.2.95c.78-.87,1.73-1.29,2.88-1.29,1.54,0,2.65.96,3.05,2.54.87-1.7,2.13-2.54,3.82-2.54,3.1,0,4.67,2.59,4.67,7.7v13ZM429.42,233.95h-4.57v-13.22h6.77l-2.2,13.22ZM456.73,234.12h-5.14l.05-1.05c.04-.88-.17-1.56-.61-2.03-.69-.73-1.8-.83-2.4-.83-.11,0-2.74.02-2.74,1.72,0,.66.94,1.32,2.4,1.68l1.87.48c2.79.7,6.5,2.12,6.5,6.31,0,3.81-3.26,6.47-7.94,6.47-2.92,0-5.61-1.08-7.03-2.82-.99-1.22-1.35-2.69-1.03-4.27l.16-.8h5.02l-.15,1.13c-.08.6.02,1.05.31,1.38.46.52,1.44.82,2.71.82s2.88-.31,2.88-1.79c0-.63-.52-1.18-3.05-1.82l-1.87-.48c-3.77-.97-5.68-3.05-5.68-6.17,0-4.09,3.86-6.24,7.66-6.24,2.5,0,4.79.89,6.29,2.43,1.25,1.29,1.88,2.98,1.82,4.89l-.03.97Z"/>
        <path class="cls-1" d="M217.63,323.76c-1.37,0-2.19,1.52-2.19,4.06-.01,1.6.31,2.77.93,3.39.66.67,1.87.67,2.53,0,.62-.62.94-1.79.93-3.39,0-2.55-.82-4.07-2.19-4.07Z"/>
        <path class="cls-1" d="M183.77,271.01c-1.5,0-2.54.75-2.99,2.16l-.42,1.25h6.44l-.41-1.23c-.41-1.54-1.18-2.17-2.62-2.17Z"/>
        <line class="cls-2" x1="272.81" y1="320.2" x2="277.55" y2="320.24"/>
      </g>
      <polygon class="cls-3" points="1.5 301.16 60.67 301.16 60.67 210.98 119.36 210.98 119.36 150.38 179.96 150.38 179.96 90.73 210.98 90.73 210.98 61.62 269.67 61.62 269.67 1.5 302.6 1.5 302.6 30.13 330.75 30.13 330.75 62.1 360.33 62.1 360.33 90.73 452.43 90.73 452.43 119.84 480.1 119.84 480.1 151.33 512.55 151.33 512.55 181.39 571.24 181.39 571.24 240.56 510.64 240.56 510.64 273.01 483.44 273.01 483.44 331.23 422.84 331.23 422.84 451 361.29 451 361.29 421.89 301.16 421.89 301.16 391.35 271.1 391.35 271.1 451 180.44 451 180.44 482.01 90.25 482.01 90.25 392.3 1.5 392.3 1.5 301.16"/>
    </g>
  </g>
</svg>